<?xml version="1.0" encoding="UTF-8"?>
<svg width="34px" height="34px" viewBox="0 0 34 34" version="1.1" xmlns="http://www.w3.org/2000/svg" xmlns:xlink="http://www.w3.org/1999/xlink">
  <!-- Generator: Sketch 45.1 (43504) - http://www.bohemiancoding.com/sketch -->
  <title>usericon</title>
  <desc>Created with Sketch.</desc>
  <defs></defs>
  <g id="Symbols" stroke="none" stroke-width="1" fill="none" fill-rule="evenodd">
    <g id="Header-/-BT-/-Debbie" transform="translate(-1195.000000, -20.000000)">
      <g id="usericon" transform="translate(1196.000000, 21.000000)">
        <path d="M18.4157783,17.4326711 C18.4157783,16.2428256 19.3070362,16.6313466 19.6823028,14.4459161 C19.8464819,13.5474614 20.6204691,14.4216336 20.761194,12.3576159 C20.761194,11.5320088 20.3390192,11.3377483 20.3390192,11.3377483 C20.3390192,11.3377483 20.5735608,10.1236203 20.6439232,9.17660044 C20.761194,8.01103753 20.010661,5 16,5 C11.989339,5 11.238806,8.01103753 11.3560768,9.17660044 C11.4498934,10.1236203 11.6609808,11.3377483 11.6609808,11.3377483 C11.6609808,11.3377483 11.238806,11.5320088 11.238806,12.3576159 C11.3795309,14.4216336 12.1535181,13.5474614 12.3176972,14.4459161 C12.6929638,16.6313466 13.5842217,16.2428256 13.5842217,17.4326711 C13.5842217,19.3995585 12.6695096,20.3465784 9.78464819,21.4392936 C6.87633262,22.5320088 5,23.6732892 5,24.4260486 L5,27 C5,27 8.83864482,31.5789668 15.3242188,31.8786621 C22.5412563,32.212158 27,27 27,27 L27,24.4260486 C27,23.6732892 25.1236674,22.5320088 22.2153518,21.4392936 C19.3304904,20.3465784 18.4157783,19.3995585 18.4157783,17.4326711 Z" id="Shape" fill="#DFE5E8">
        </path>
        <circle id="Oval" stroke="#DFE5E8" cx="16" cy="16" r="16"></circle>
      </g>
    </g>
  </g>
</svg>
